<svg width="20" height="21" viewBox="0 0 20 21" fill="none" xmlns="http://www.w3.org/2000/svg">
<path d="M18.5742 7.10596C18.5742 6.49398 18.4961 5.96012 18.3398 5.50439C18.1706 5.04867 17.9622 4.68408 17.7148 4.41064C17.4674 4.13721 17.168 3.91585 16.8164 3.74658C16.4518 3.57731 16.1003 3.46012 15.7617 3.39502C15.4232 3.32992 15.0586 3.29736 14.668 3.29736C14.2773 3.29736 13.8607 3.39502 13.418 3.59033C12.9753 3.78564 12.5651 4.02653 12.1875 4.31299C11.8099 4.59945 11.4844 4.86637 11.2109 5.11377C10.9505 5.36117 10.7292 5.58903 10.5469 5.79736C10.4167 5.95361 10.2344 6.03174 10 6.03174C9.76562 6.03174 9.58333 5.95361 9.45312 5.79736C9.27083 5.58903 9.04948 5.36117 8.78906 5.11377C8.51562 4.86637 8.1901 4.59945 7.8125 4.31299C7.4349 4.02653 7.02474 3.78564 6.58203 3.59033C6.13932 3.39502 5.72266 3.29736 5.33203 3.29736C4.94141 3.29736 4.57682 3.32992 4.23828 3.39502C3.89974 3.46012 3.54818 3.57731 3.18359 3.74658C2.83203 3.91585 2.53255 4.13721 2.28516 4.41064C2.03776 4.68408 1.82943 5.04867 1.66016 5.50439C1.50391 5.96012 1.42578 6.49398 1.42578 7.10596C1.42578 8.35596 2.1224 9.67757 3.51562 11.0708L10 17.3208L16.4648 11.0708C17.8711 9.67757 18.5742 8.35596 18.5742 7.10596ZM20 7.10596C20 8.74658 19.1471 10.4198 17.4414 12.1255L10.4883 18.8247C10.3581 18.9549 10.1953 19.02 10 19.02C9.80469 19.02 9.64193 18.9549 9.51172 18.8247L2.53906 12.106C2.47396 12.0409 2.3763 11.9432 2.24609 11.813C2.11589 11.6828 1.90755 11.4354 1.62109 11.0708C1.33464 10.7192 1.08073 10.3612 0.859375 9.99658C0.638021 9.61898 0.436198 9.16976 0.253906 8.64893C0.0846354 8.11507 0 7.60075 0 7.10596C0 5.46533 0.47526 4.18278 1.42578 3.2583C2.36328 2.33382 3.66536 1.87158 5.33203 1.87158C5.80078 1.87158 6.26953 1.95622 6.73828 2.12549C7.22005 2.28174 7.66927 2.49658 8.08594 2.77002C8.5026 3.04346 8.86068 3.29736 9.16016 3.53174C9.44661 3.76611 9.72656 4.02002 10 4.29346C10.2734 4.02002 10.5534 3.76611 10.8398 3.53174C11.1393 3.29736 11.4974 3.04346 11.9141 2.77002C12.3307 2.49658 12.7799 2.28174 13.2617 2.12549C13.7305 1.95622 14.1992 1.87158 14.668 1.87158C16.3346 1.87158 17.6367 2.33382 18.5742 3.2583C19.5247 4.18278 20 5.46533 20 7.10596Z" fill="white"/>
</svg>
