<svg width="26" height="25" viewBox="0 0 26 25" fill="none" xmlns="http://www.w3.org/2000/svg">
<path d="M12.9101 22.3939L3.32205 12.3939C2.47939 11.5519 1.92322 10.466 1.73241 9.29009C1.54161 8.11423 1.72587 6.90815 2.25905 5.84289C2.66111 5.03901 3.24842 4.34217 3.9726 3.80978C4.69678 3.27739 5.53709 2.92469 6.42431 2.78074C7.31152 2.6368 8.22025 2.70572 9.0756 2.98184C9.93096 3.25796 10.7085 3.73337 11.3441 4.36889L12.9101 5.93389L14.4761 4.36889C15.1116 3.73337 15.8892 3.25796 16.7445 2.98184C17.5999 2.70572 18.5086 2.6368 19.3958 2.78074C20.283 2.92469 21.1233 3.27739 21.8475 3.80978C22.5717 4.34217 23.159 5.03901 23.5611 5.84289C24.0935 6.90773 24.2775 8.11311 24.0869 9.28829C23.8963 10.4635 23.3408 11.5489 22.4991 12.3909L12.9101 22.3939Z" fill="#444444" stroke="#323232" stroke-width="2" stroke-linecap="round" stroke-linejoin="round"/>
</svg>
