<svg width="21" height="21" viewBox="0 0 21 21" fill="none" xmlns="http://www.w3.org/2000/svg">
<path fill-rule="evenodd" clip-rule="evenodd" d="M20.9149 19.5319L14.9913 13.6083C16.0891 12.1968 16.75 10.4292 16.75 8.50667C16.75 3.91174 13.0116 0.173334 8.41665 0.173334C3.82172 0.173334 0.083313 3.91174 0.083313 8.50667C0.083313 13.1016 3.82172 16.84 8.41665 16.84C10.3392 16.84 12.1067 16.1792 13.5183 15.0813L19.4419 21.0049L20.9149 19.5319ZM8.41665 14.7567C4.9702 14.7567 2.16665 11.9531 2.16665 8.50667C2.16665 5.06022 4.9702 2.25667 8.41665 2.25667C11.8631 2.25667 14.6666 5.06022 14.6666 8.50667C14.6666 11.9531 11.8631 14.7567 8.41665 14.7567Z" fill="#323232"/>
</svg>
