<svg width="26" height="25" viewBox="0 0 26 25" fill="none" xmlns="http://www.w3.org/2000/svg">
<path d="M24.25 14.09V6.59C24.25 6.19218 24.092 5.81064 23.8107 5.52934C23.5294 5.24804 23.1478 5.09 22.75 5.09H10.75C10.3522 5.09 9.97064 5.24804 9.68934 5.52934C9.40804 5.81064 9.25 6.19218 9.25 6.59M9.25 6.59V12.59M9.25 6.59H6.25C5.05653 6.59 3.91193 7.06411 3.06802 7.90802C2.22411 8.75193 1.75 9.89653 1.75 11.09V17.09C1.75 17.4878 1.90804 17.8694 2.18934 18.1507C2.47064 18.432 2.85218 18.59 3.25 18.59H4" stroke="#323232" stroke-width="2" stroke-linecap="round" stroke-linejoin="round"/>
<path d="M1.75 12.59H4.75C5.14782 12.59 5.52936 12.432 5.81066 12.1507C6.09196 11.8694 6.25 11.4878 6.25 11.09V6.59" stroke="#323232" stroke-width="2" stroke-linecap="round" stroke-linejoin="round"/>
<path d="M8.5 20.09C9.09674 20.09 9.66903 19.8529 10.091 19.431C10.5129 19.009 10.75 18.4367 10.75 17.84C10.75 17.2433 10.5129 16.671 10.091 16.249C9.66903 15.8271 9.09674 15.59 8.5 15.59C7.90326 15.59 7.33097 15.8271 6.90901 16.249C6.48705 16.671 6.25 17.2433 6.25 17.84C6.25 18.4367 6.48705 19.009 6.90901 19.431C7.33097 19.8529 7.90326 20.09 8.5 20.09ZM20.5 20.09C21.0967 20.09 21.669 19.8529 22.091 19.431C22.5129 19.009 22.75 18.4367 22.75 17.84C22.75 17.2433 22.5129 16.671 22.091 16.249C21.669 15.8271 21.0967 15.59 20.5 15.59C19.9033 15.59 19.331 15.8271 18.909 16.249C18.4871 16.671 18.25 17.2433 18.25 17.84C18.25 18.4367 18.4871 19.009 18.909 19.431C19.331 19.8529 19.9033 20.09 20.5 20.09Z" stroke="#323232" stroke-width="2" stroke-linecap="round" stroke-linejoin="round"/>
<path d="M13 18.59H16" stroke="#323232" stroke-width="2" stroke-linecap="round" stroke-linejoin="round"/>
</svg>
